<?xml version="1.0" encoding="UTF-8"?>
<svg xmlns="http://www.w3.org/2000/svg" xmlns:xlink="http://www.w3.org/1999/xlink" width="375pt" height="374.999991pt" viewBox="0 0 375 374.999991" version="1.2">
<defs>
<clipPath id="clip1">
  <path d="M 42.714844 61.765625 L 332.214844 61.765625 L 332.214844 313.015625 L 42.714844 313.015625 Z M 42.714844 61.765625 "/>
</clipPath>
</defs>
<g id="surface1">
<rect x="0" y="0" width="375" height="374.999991" style="fill:rgb(61.569214%,61.569214%,61.569214%);fill-opacity:1;stroke:none;"/>
<g clip-path="url(#clip1)" clip-rule="nonzero">
<path style=" stroke:none;fill-rule:nonzero;fill:rgb(21.569824%,23.529053%,43.139648%);fill-opacity:1;" d="M 329.667969 290.589844 L 329.667969 290.585938 L 197.875 68.988281 L 197.808594 68.980469 C 195.324219 64.6875 190.734375 61.765625 185.414062 61.765625 C 180.644531 61.765625 176.449219 64.113281 173.835938 67.6875 L 173.800781 67.6875 L 173.714844 67.835938 C 173.230469 68.519531 172.820312 69.25 172.460938 70.011719 L 45.199219 290.679688 L 45.203125 290.683594 C 43.671875 292.964844 42.777344 295.707031 42.777344 298.65625 C 42.777344 306.585938 49.207031 313.015625 57.144531 313.015625 L 317.789062 313.015625 C 325.722656 313.015625 332.152344 306.585938 332.152344 298.65625 C 332.152344 295.664062 331.234375 292.890625 329.667969 290.589844 Z M 329.667969 290.589844 "/>
</g>
</g>
</svg>
